<svg xmlns="http://www.w3.org/2000/svg" width="16.394" height="19.987" viewBox="0 0 16.394 19.987">
  <g id="apple" transform="translate(-46.022)">
    <path id="Path_15424" data-name="Path 15424" d="M51.457,133.34c-2.975-.017-5.435-6.089-5.435-9.182,0-5.052,3.79-6.157,5.25-6.157a6.041,6.041,0,0,1,1.981.487,4.427,4.427,0,0,0,1.131.324,3.52,3.52,0,0,0,.811-.263,6.5,6.5,0,0,1,2.446-.591h.006a5.013,5.013,0,0,1,4.195,2.119l.306.46-.44.332a3.705,3.705,0,0,0-1.777,3.055,3.449,3.449,0,0,0,1.924,3.188c.276.166.561.337.561.711,0,.244-1.949,5.487-4.779,5.487a3.843,3.843,0,0,1-1.614-.392,3.273,3.273,0,0,0-1.436-.346,3.694,3.694,0,0,0-1.137.308,5.571,5.571,0,0,1-1.973.46Z" transform="translate(0 -113.353)"/>
    <path id="Path_15425" data-name="Path 15425" d="M258.909,0c.074,2.657-1.827,4.5-3.725,4.385A4.235,4.235,0,0,1,258.909,0Z" transform="translate(-200.968)"/>
  </g>
</svg>
