<svg id="google" xmlns="http://www.w3.org/2000/svg" width="20.152" height="20.152" viewBox="0 0 20.152 20.152">
  <path id="Path_15420" data-name="Path 15420" d="M4.466,145l-.7,2.619-2.564.054a10.094,10.094,0,0,1-.074-9.409h0l2.283.418,1,2.269A6.013,6.013,0,0,0,4.466,145Z" transform="translate(0 -132.826)" fill="#fbbb00"/>
  <path id="Path_15421" data-name="Path 15421" d="M271.306,208.176a10.072,10.072,0,0,1-3.592,9.74h0l-2.875-.147-.407-2.54a6.006,6.006,0,0,0,2.584-3.067h-5.388v-3.986h9.678Z" transform="translate(-251.33 -199.982)" fill="#518ef8"/>
  <path id="Path_15422" data-name="Path 15422" d="M45.692,315.164h0a10.079,10.079,0,0,1-15.183-3.083l3.265-2.673a5.993,5.993,0,0,0,8.636,3.068Z" transform="translate(-29.308 -297.231)" fill="#28b446"/>
  <path id="Path_15423" data-name="Path 15423" d="M44,2.32,40.741,4.992A5.992,5.992,0,0,0,31.907,8.13L28.625,5.442h0A10.078,10.078,0,0,1,44,2.32Z" transform="translate(-27.497)" fill="#f14336"/>
</svg>
